<svg width="14" height="13" viewBox="0 0 14 13" xmlns="http://www.w3.org/2000/svg" xmlns:sketch="http://www.bohemiancoding.com/sketch/ns"><title>status-ico_available</title><desc>Created with Sketch.</desc><g sketch:type="MSArtboardGroup" fill="none"><path d="M6.751 1c-3.176 0-5.751 2.267-5.751 5.063 0 1.392.639 2.653 1.671 3.568-.179.633-.534 1.493-1.236 2.332.12.213 2.096-.537 3.489-1.098.575.169 1.189.261 1.828.261 3.177 0 5.752-2.267 5.752-5.063s-2.576-5.063-5.752-5.063z" stroke="#fff" stroke-width="2" stroke-linecap="round" stroke-linejoin="round" fill="#fff" sketch:type="MSShapeGroup"/><path d="M6.751 1c-3.176 0-5.751 2.267-5.751 5.063 0 1.392.639 2.653 1.671 3.568-.179.633-.534 1.493-1.236 2.332.12.213 2.096-.537 3.489-1.098.575.169 1.189.261 1.828.261 3.177 0 5.752-2.267 5.752-5.063s-2.576-5.063-5.752-5.063zm1.721 3.036c.42 0 .76.342.76.762 0 .422-.34.763-.76.763s-.761-.341-.761-.763c0-.42.341-.762.761-.762zm-3.47 0c.42 0 .761.342.761.762 0 .422-.341.763-.761.763s-.761-.341-.761-.763c0-.42.341-.762.761-.762zm1.758 5.551l-.023-.001-.023.001c-1.536 0-3.252-.999-3.647-2.681 1.037.481 2.487.691 3.67.691 1.183 0 2.633-.21 3.67-.691-.394 1.682-2.111 2.681-3.647 2.681z" fill="#6DB23D" sketch:type="MSShapeGroup"/></g></svg>