<svg width="14" height="13" viewBox="0 0 14 13" xmlns="http://www.w3.org/2000/svg" xmlns:sketch="http://www.bohemiancoding.com/sketch/ns"><title>status-ico_unavailable</title><desc>Created with Sketch.</desc><g sketch:type="MSArtboardGroup" fill="none"><path d="M6.751 1c-3.176 0-5.751 2.267-5.751 5.063 0 1.392.639 2.653 1.671 3.568-.179.633-.534 1.493-1.236 2.332.12.213 2.096-.537 3.489-1.098.575.169 1.189.261 1.828.261 3.177 0 5.752-2.267 5.752-5.063s-2.576-5.063-5.752-5.063z" stroke="#fff" stroke-width="2" stroke-linecap="round" stroke-linejoin="round" fill="#fff" sketch:type="MSShapeGroup"/><path d="M6.751 1c-3.176 0-5.751 2.267-5.751 5.063 0 1.392.639 2.653 1.671 3.568-.179.633-.534 1.493-1.236 2.332.12.213 2.096-.537 3.489-1.098.575.169 1.189.261 1.828.261 3.177 0 5.752-2.267 5.752-5.063s-2.576-5.063-5.752-5.063z" fill="#DB3F33" sketch:type="MSShapeGroup"/><path fill="#fff" sketch:type="MSShapeGroup" d="M4 5h6v2h-6z"/></g></svg>